<svg xmlns="http://www.w3.org/2000/svg" xmlns:xlink="http://www.w3.org/1999/xlink" width="50" zoomAndPan="magnify" viewBox="0 0 37.5 37.499999" height="50" preserveAspectRatio="xMidYMid meet" version="1.0"><defs><clipPath id="ec44dcd793"><path d="M 5.011719 0 L 30 0 L 30 37 L 5.011719 37 Z M 5.011719 0 " clip-rule="nonzero"/></clipPath><clipPath id="46b6940491"><path d="M 22 25 L 31.65625 25 L 31.65625 34 L 22 34 Z M 22 25 " clip-rule="nonzero"/></clipPath></defs><g clip-path="url(#ec44dcd793)"><path fill="#000000" d="M 12.8125 0.210938 C 12.8125 0.210938 5.058594 0.316406 5.160156 7.425781 C 5.261719 14.539062 6.671875 20.824219 8.984375 24.328125 C 11.300781 27.832031 17.242188 37.003906 23.988281 36.078125 C 23.988281 36.078125 27.308594 35.355469 29.824219 33.707031 L 21.671875 27.214844 C 21.671875 27.214844 19.253906 28.761719 17.746094 26.699219 C 16.234375 24.636719 11.503906 15.054688 11.503906 15.054688 C 11.503906 15.054688 10.195312 11.960938 13.113281 10.621094 Z M 12.8125 0.210938 " fill-opacity="1" fill-rule="nonzero"/></g><path fill="#000000" d="M 13.71875 0.210938 C 13.71875 0.210938 14.320312 0.0078125 15.429688 0.625 C 16.535156 1.242188 16.535156 1.757812 16.535156 1.757812 L 16.636719 8.871094 C 16.636719 8.871094 16.335938 9.28125 15.933594 9.695312 C 15.53125 10.105469 14.222656 10.726562 14.019531 10.3125 C 13.820312 9.902344 13.71875 0.210938 13.71875 0.210938 Z M 13.71875 0.210938 " fill-opacity="1" fill-rule="nonzero"/><g clip-path="url(#46b6940491)"><path fill="#000000" d="M 22.347656 26.453125 L 24.589844 25.253906 C 24.589844 25.253906 25.09375 25.152344 25.898438 25.667969 C 26.703125 26.183594 30.933594 29.585938 30.933594 29.585938 C 30.933594 29.585938 31.636719 30.203125 31.4375 30.925781 C 31.234375 31.648438 30.730469 33.191406 30.730469 33.191406 Z M 22.347656 26.453125 " fill-opacity="1" fill-rule="nonzero"/></g></svg>