<svg xmlns="http://www.w3.org/2000/svg" xmlns:xlink="http://www.w3.org/1999/xlink" width="50" zoomAndPan="magnify" viewBox="0 0 37.5 37.499999" height="50" preserveAspectRatio="xMidYMid meet" version="1.0"><defs><clipPath id="a1d2bc9441"><path d="M 27 19 L 37.007812 19 L 37.007812 31 L 27 31 Z M 27 19 " clip-rule="nonzero"/></clipPath><clipPath id="3931237b6c"><path d="M 26 5 L 37.007812 5 L 37.007812 18 L 26 18 Z M 26 5 " clip-rule="nonzero"/></clipPath></defs><path fill="#000000" d="M 19.28125 26.679688 L 19.28125 36.960938 C 21.886719 36.398438 24.179688 32.914062 25.503906 28.011719 C 23.546875 27.21875 21.449219 26.765625 19.28125 26.679688 Z M 19.28125 26.679688 " fill-opacity="1" fill-rule="nonzero"/><path fill="#000000" d="M 22.789062 36.546875 C 26.082031 35.773438 29.035156 34.121094 31.390625 31.847656 C 30.039062 30.542969 28.523438 29.46875 26.890625 28.644531 C 25.941406 32.070312 24.515625 34.824219 22.789062 36.546875 Z M 22.789062 36.546875 " fill-opacity="1" fill-rule="nonzero"/><g clip-path="url(#a1d2bc9441)"><path fill="#000000" d="M 27.265625 27.167969 C 29.140625 28.078125 30.875 29.292969 32.417969 30.777344 C 35.164062 27.679688 36.886719 23.660156 37.0625 19.246094 L 28.171875 19.246094 C 28.125 22.089844 27.804688 24.765625 27.265625 27.167969 Z M 27.265625 27.167969 " fill-opacity="1" fill-rule="nonzero"/></g><path fill="#000000" d="M 30.5625 4.40625 C 28.355469 2.519531 25.703125 1.144531 22.789062 0.460938 C 24.289062 1.957031 25.5625 4.234375 26.496094 7.054688 C 27.949219 6.359375 29.3125 5.472656 30.5625 4.40625 Z M 30.5625 4.40625 " fill-opacity="1" fill-rule="nonzero"/><path fill="#000000" d="M 26.6875 19.246094 L 19.28125 19.246094 L 19.28125 25.195312 C 21.570312 25.277344 23.785156 25.742188 25.855469 26.554688 C 26.347656 24.316406 26.640625 21.839844 26.6875 19.246094 Z M 26.6875 19.246094 " fill-opacity="1" fill-rule="nonzero"/><path fill="#000000" d="M 19.28125 0.046875 L 19.28125 8.828125 C 21.292969 8.75 23.253906 8.355469 25.105469 7.652344 C 23.746094 3.464844 21.640625 0.558594 19.28125 0.046875 Z M 19.28125 0.046875 " fill-opacity="1" fill-rule="nonzero"/><g clip-path="url(#3931237b6c)"><path fill="#000000" d="M 28.171875 17.761719 L 37.0625 17.761719 C 36.871094 12.957031 34.847656 8.617188 31.671875 5.429688 C 30.230469 6.683594 28.632812 7.714844 26.929688 8.503906 C 27.671875 11.230469 28.117188 14.375 28.171875 17.761719 Z M 28.171875 17.761719 " fill-opacity="1" fill-rule="nonzero"/></g><path fill="#000000" d="M 25.527344 9.085938 C 23.542969 9.824219 21.4375 10.25 19.28125 10.328125 L 19.28125 17.761719 L 26.6875 17.761719 C 26.632812 14.625 26.214844 11.664062 25.527344 9.085938 Z M 25.527344 9.085938 " fill-opacity="1" fill-rule="nonzero"/><path fill="#000000" d="M 5.691406 31.847656 C 8.046875 34.121094 11 35.773438 14.292969 36.546875 C 12.5625 34.824219 11.140625 32.070312 10.1875 28.644531 C 8.558594 29.46875 7.042969 30.542969 5.691406 31.847656 Z M 5.691406 31.847656 " fill-opacity="1" fill-rule="nonzero"/><path fill="#000000" d="M 11.222656 26.554688 C 13.296875 25.742188 15.511719 25.277344 17.796875 25.195312 L 17.796875 19.246094 L 10.390625 19.246094 C 10.4375 21.839844 10.734375 24.316406 11.222656 26.554688 Z M 11.222656 26.554688 " fill-opacity="1" fill-rule="nonzero"/><path fill="#000000" d="M 10.152344 8.503906 C 8.449219 7.714844 6.851562 6.683594 5.410156 5.429688 C 2.230469 8.617188 0.210938 12.957031 0.0195312 17.761719 L 8.90625 17.761719 C 8.964844 14.375 9.40625 11.230469 10.152344 8.503906 Z M 10.152344 8.503906 " fill-opacity="1" fill-rule="nonzero"/><path fill="#000000" d="M 11.976562 7.652344 C 13.824219 8.355469 15.789062 8.75 17.796875 8.828125 L 17.796875 0.046875 C 15.441406 0.558594 13.335938 3.464844 11.976562 7.652344 Z M 11.976562 7.652344 " fill-opacity="1" fill-rule="nonzero"/><path fill="#000000" d="M 10.390625 17.761719 L 17.796875 17.761719 L 17.796875 10.328125 C 15.644531 10.25 13.539062 9.824219 11.554688 9.085938 C 10.867188 11.664062 10.449219 14.625 10.390625 17.761719 Z M 10.390625 17.761719 " fill-opacity="1" fill-rule="nonzero"/><path fill="#000000" d="M 14.292969 0.460938 C 11.378906 1.148438 8.726562 2.519531 6.519531 4.40625 C 7.765625 5.472656 9.128906 6.359375 10.585938 7.054688 C 11.515625 4.234375 12.789062 1.957031 14.292969 0.460938 Z M 14.292969 0.460938 " fill-opacity="1" fill-rule="nonzero"/><path fill="#000000" d="M 17.796875 36.960938 L 17.796875 26.679688 C 15.632812 26.761719 13.535156 27.21875 11.578125 28.011719 C 12.902344 32.917969 15.195312 36.398438 17.796875 36.960938 Z M 17.796875 36.960938 " fill-opacity="1" fill-rule="nonzero"/><path fill="#000000" d="M 8.910156 19.246094 L 0.0195312 19.246094 C 0.195312 23.660156 1.917969 27.679688 4.664062 30.78125 C 6.207031 29.292969 7.941406 28.078125 9.816406 27.167969 C 9.273438 24.765625 8.957031 22.089844 8.910156 19.246094 Z M 8.910156 19.246094 " fill-opacity="1" fill-rule="nonzero"/></svg>