<svg xmlns="http://www.w3.org/2000/svg" xmlns:xlink="http://www.w3.org/1999/xlink" width="50" zoomAndPan="magnify" viewBox="0 0 37.5 37.499999" height="50" preserveAspectRatio="xMidYMid meet" version="1.0"><defs><clipPath id="a9906d37df"><path d="M 0 0 L 37.007812 0 L 37.007812 37.007812 L 0 37.007812 Z M 0 0 " clip-rule="nonzero"/></clipPath><clipPath id="7499b182aa"><path d="M 5.550781 0 L 31.457031 0 L 31.457031 37.007812 L 5.550781 37.007812 Z M 5.550781 0 " clip-rule="nonzero"/></clipPath></defs><g clip-path="url(#a9906d37df)"><path fill="#ffffff" d="M 0 0 L 37.007812 0 L 37.007812 37.007812 L 0 37.007812 Z M 0 0 " fill-opacity="1" fill-rule="nonzero"/><path fill="#ffffff" d="M 0 0 L 37.007812 0 L 37.007812 37.007812 L 0 37.007812 Z M 0 0 " fill-opacity="1" fill-rule="nonzero"/></g><g clip-path="url(#7499b182aa)"><path fill="#000000" d="M 18.503906 0 C 11.351562 0 5.550781 5.800781 5.550781 12.953125 C 5.550781 22.667969 18.503906 37.007812 18.503906 37.007812 C 18.503906 37.007812 31.457031 22.667969 31.457031 12.953125 C 31.457031 5.800781 25.65625 0 18.503906 0 Z M 18.503906 17.578125 C 15.949219 17.578125 13.878906 15.503906 13.878906 12.953125 C 13.878906 10.398438 15.949219 8.328125 18.503906 8.328125 C 21.058594 8.328125 23.128906 10.398438 23.128906 12.953125 C 23.128906 15.503906 21.058594 17.578125 18.503906 17.578125 Z M 18.503906 17.578125 " fill-opacity="1" fill-rule="nonzero"/></g></svg>